<svg xmlns="http://www.w3.org/2000/svg" width="1010.075" height="164.165" viewBox="0 0 1010.075 164.165">
  <path id="Path_1" data-name="Path 1" d="M134.375-16.555l-17.63-25.37c-10.535,9.245-20.64,11.4-36.765,11.4H43c8.815-4.945,14.62-14.19,14.62-26.875V-104.06c0-10.965,7.31-18.92,17.2-18.92S91.805-116.1,91.805-106c0,7.74-4.73,13.76-10.965,17.845l23.865,19.565c11.61-7.74,20.855-24.08,20.855-39.775,0-29.455-20.855-46.655-49.88-46.655-31.605,0-52.245,21.5-52.245,50.955v48.59C23.435-41.28,17.63-32.9,4.3-30.96V0H82.345C106,0,119.54-1.935,134.375-16.555Zm50.955-8.17,40.635-40.85c-9.89-15.48-22.145-22.145-40.42-22.145-24.08,0-43.645,20.855-43.645,43.86,0,29.67,23.435,45.8,50.31,45.8,7.74,0,16.985-1.505,23.435-4.73V-30.96A37.454,37.454,0,0,1,193.5-23.65,34.029,34.029,0,0,1,185.33-24.725ZM184.04-62.78c2.58,0,6.02.645,8.17,2.58L170.28-37.625a19.807,19.807,0,0,1-1.72-8.17C168.56-54.18,173.935-62.78,184.04-62.78ZM387-4.085V-27.52a11.251,11.251,0,0,1-7.31,2.58c-3.44,0-6.45-1.935-6.45-6.235V-58.05c0-18.06-11.18-29.67-29.025-29.67-8.17,0-19.78,3.01-26.445,12.685-5.16-9.46-14.62-12.685-23.65-12.685a28.461,28.461,0,0,0-22.79,10.75v-8.815H240.585V0H271.33V-51.815c1.29-6.235,5.59-10.535,11.18-10.535,5.8,0,9.03,4.085,9.03,10.105V0h30.745V-51.6c1.29-6.235,5.59-10.75,11.18-10.75,5.805,0,9.03,4.085,9.03,10.105v25.8c0,17.415,10.535,28.6,25.37,28.6C375.175,2.15,381.84.215,387-4.085Zm54.825-83.85c-24.725,0-44.935,20.425-44.935,45.15A45.193,45.193,0,0,0,441.825,2.15,45.053,45.053,0,0,0,486.76-42.785,45.1,45.1,0,0,0,441.825-87.935Zm0,64.07c-10.75,0-18.275-8.385-18.275-18.92,0-8.6,5.16-16.555,13.545-18.7a11.358,11.358,0,0,0-.215,2.8,18.214,18.214,0,0,0,18.275,18.06,18.653,18.653,0,0,0,6.02-1.075A19.292,19.292,0,0,1,441.825-23.865ZM594.9-24.94c-3.44,0-6.45-1.935-6.45-6.235V-58.05c0-17.415-10.535-29.67-28.165-29.67A28.461,28.461,0,0,0,537.5-76.97v-8.815H506.755V0H537.5V-51.815c1.29-6.235,5.59-10.535,11.18-10.535,5.8,0,9.03,4.085,9.03,10.105v25.8c0,17.415,10.32,28.6,25.37,28.6a30.5,30.5,0,0,0,19.135-6.235V-27.52A11.25,11.25,0,0,1,594.9-24.94ZM754.22-122.12v-30.53H660.91c-26.66,0-52.675,13.76-52.675,43.43,0,29.24,18.06,41.28,45.58,43.215l10.75-30.1c-9.46,0-22.575-2.58-22.575-13.33,0-8.815,6.235-12.255,15.48-12.255h53.1c-14.19,5.16-22.36,20.21-22.36,36.98v40.85c0,9.46-6.235,13.115-13.33,13.115a27.291,27.291,0,0,1-16.34-5.59v30.96c8.385,5.375,18.92,7.31,26.015,7.31,23.865,0,37.625-16.34,37.625-41.5V-86.215C722.185-108.36,735.515-122.12,754.22-122.12Zm47.73,34.4c-8.6,0-16.34,5.16-21.285,13.76V-85.785H749.92V0h30.745V-43c.645-5.805,2.365-10.535,6.665-13.975A17.634,17.634,0,0,0,802.6-49.02c9.46,0,18.06-7.955,18.06-19.565C820.655-79.765,812.485-87.72,801.95-87.72Zm70.09,63,40.635-40.85c-9.89-15.48-22.145-22.145-40.42-22.145-24.08,0-43.645,20.855-43.645,43.86,0,29.67,23.435,45.8,50.31,45.8,7.74,0,16.985-1.505,23.435-4.73V-30.96a37.454,37.454,0,0,1-22.145,7.31A34.029,34.029,0,0,1,872.04-24.725ZM870.75-62.78c2.58,0,6.02.645,8.17,2.58L856.99-37.625a19.807,19.807,0,0,1-1.72-8.17C855.27-54.18,860.645-62.78,870.75-62.78Zm95.03,38.055,40.635-40.85c-9.89-15.48-22.145-22.145-40.42-22.145-24.08,0-43.645,20.855-43.645,43.86,0,29.67,23.435,45.8,50.31,45.8,7.74,0,16.985-1.505,23.435-4.73V-30.96a37.454,37.454,0,0,1-22.145,7.31A34.029,34.029,0,0,1,965.78-24.725ZM964.49-62.78c2.58,0,6.02.645,8.17,2.58L950.73-37.625a19.807,19.807,0,0,1-1.72-8.17C949.01-54.18,954.385-62.78,964.49-62.78Z" transform="translate(-0.8 158.515)" fill="none" stroke="#707070" stroke-width="7"/>
</svg>
